<?xml version="1.0" encoding="UTF-8" standalone="no"?>
<!-- Created with Inkscape (http://www.inkscape.org/) -->

<svg
   width="81.227097mm"
   height="81.261452mm"
   viewBox="0 0 81.227097 81.261452"
   version="1.1"
   id="svg1"
   xml:space="preserve"
   xmlns:inkscape="http://www.inkscape.org/namespaces/inkscape"
   xmlns:sodipodi="http://sodipodi.sourceforge.net/DTD/sodipodi-0.dtd"
   xmlns="http://www.w3.org/2000/svg"
   xmlns:svg="http://www.w3.org/2000/svg"><sodipodi:namedview
     id="namedview1"
     pagecolor="#ffffff"
     bordercolor="#000000"
     borderopacity="0.25"
     inkscape:showpageshadow="2"
     inkscape:pageopacity="0.0"
     inkscape:pagecheckerboard="0"
     inkscape:deskcolor="#d1d1d1"
     inkscape:document-units="mm" /><defs
     id="defs1" /><g
     inkscape:label="Livello 1"
     inkscape:groupmode="layer"
     id="layer1"
     transform="translate(-58.152135,-67.993559)"><path
       style="fill:#000000"
       d="m 80.244848,149.17109 c -5.143764,-0.94427 -9.585346,-3.02648 -13.302871,-6.23638 -3.59024,-3.1 -6.91009,-8.43916 -8.18338,-13.16094 -0.605601,-2.24577 -0.60646,-2.27577 -0.60646,-21.16667 0,-18.8909 8.59e-4,-18.92089 0.60646,-21.16667 1.27329,-4.72178 4.59314,-10.06094 8.18338,-13.16094 3.047147,-2.63106 6.727777,-4.58864 10.657171,-5.66813 l 2.24883,-0.6178 h 18.91771 18.917712 l 2.24882,0.6178 c 3.92939,1.07949 7.61002,3.03707 10.65717,5.66813 3.58774,3.09784 6.84266,8.34092 8.17035,13.16094 l 0.61949,2.24896 v 18.91771 c 0,18.8909 -8.6e-4,18.9209 -0.60646,21.16667 -1.27329,4.72178 -4.59314,10.06094 -8.18338,13.16094 -2.98119,2.57411 -6.3142,4.373 -10.32674,5.57355 l -2.31467,0.69255 -18.520842,0.0459 c -10.18645,0.0252 -18.81849,-0.009 -19.18229,-0.0756 z m -9.260419,-7.61729 c 0.07276,-0.12616 -0.730912,-0.25333 -1.785938,-0.2826 -1.701162,-0.0472 -2.173449,0.0654 -1.808008,0.43087 0.212685,0.21272 3.463086,0.0786 3.593946,-0.14827 z m 9.394799,-1.99008 c 0.0328,-1.4819 -0.0472,-2.11704 -0.26667,-2.11704 -0.222,0 -0.29328,0.6375 -0.24407,2.18282 0.082,2.57471 0.0658,2.44928 0.2878,2.22727 0.0968,-0.0968 0.19714,-1.12869 0.22294,-2.29305 z m 4.25881,1.65879 c -0.26896,-0.26896 -0.49087,0.13596 -0.2702,0.49302 0.1667,0.26972 0.22902,0.26993 0.31864,0.001 0.0613,-0.18382 0.0395,-0.40616 -0.0484,-0.49408 z m 0.79375,0 c -0.26896,-0.26896 -0.49087,0.13596 -0.2702,0.49302 0.1667,0.26972 0.22902,0.26993 0.31864,0.001 0.0613,-0.18382 0.0395,-0.40616 -0.0484,-0.49408 z m 2.42111,0.32317 c -0.0817,-0.28416 -2.0518,-0.42836 -2.0518,-0.15018 0,0.35513 0.22488,0.43317 1.17789,0.40878 0.51774,-0.0133 0.911,-0.12962 0.87391,-0.2586 z m 8.53154,-0.0181 c 0,-0.17611 -0.70645,-0.28471 -1.85209,-0.28471 -1.94685,0 -2.55866,0.34671 -0.85989,0.48731 1.82379,0.15094 2.71198,0.0846 2.71198,-0.2026 z m 5.291662,-0.0649 c 0,-0.21884 -0.16117,-0.30664 -0.39687,-0.21619 -0.33095,0.127 -0.39688,-0.17597 -0.39688,-1.82378 0,-1.14099 -0.11181,-1.97607 -0.26458,-1.97607 -0.25705,0 -0.3935,4.01623 -0.14489,4.26483 0.27977,0.27977 1.20322,0.0888 1.20322,-0.24879 z m -34.660421,-2.16395 c 0,-1.01865 -0.09922,-1.85209 -0.220486,-1.85209 -0.221058,0 -0.353637,2.75239 -0.162495,3.37344 0.239289,0.77749 0.382981,0.20668 0.382981,-1.52135 z m 4.903512,-0.13272 c 0.03664,-1.21193 -0.04403,-1.71937 -0.273304,-1.71937 -0.232623,0 -0.303844,0.50873 -0.250029,1.78594 0.09024,2.1418 0.07529,2.04888 0.294547,1.82961 0.09725,-0.0972 0.200199,-0.95052 0.228786,-1.89618 z m 12.029827,0.13272 c 0,-1.01865 -0.0951,-1.85209 -0.21144,-1.85209 -0.11629,0 -0.23646,0.83344 -0.26704,1.85209 -0.0332,1.10643 0.0519,1.85208 0.21144,1.85208 0.15423,0 0.26704,-0.78238 0.26704,-1.85208 z m 4.8859,-0.0218 c -0.005,-0.96316 -0.13091,-1.70051 -0.2996,-1.75674 -0.19698,-0.0657 -0.26614,0.48265 -0.21451,1.70071 0.0889,2.0976 0.0709,1.99529 0.32456,1.8385 0.10914,-0.0674 0.19444,-0.86955 0.18955,-1.78247 z m 3.58077,1.22803 c 0,-0.35522 -0.11907,-0.71943 -0.26459,-0.80937 -0.15436,-0.0954 -0.26458,0.17364 -0.26458,0.64584 0,0.44516 0.11906,0.80937 0.26458,0.80937 0.14552,0 0.26459,-0.29063 0.26459,-0.64584 z m 4.87344,-0.20285 c -0.0368,-0.33359 -0.0768,-1.11253 -0.0889,-1.731 -0.0121,-0.61846 -0.1253,-1.12448 -0.2515,-1.12448 -0.17482,0 -0.2346,3.23256 -0.0676,3.65364 0.13148,0.33145 0.46134,-0.31389 0.40796,-0.79816 z m 14.441142,-2.33791 c 0,-0.49079 0.12918,-0.78857 0.33073,-0.7624 0.70501,0.0916 1.25677,-0.031 1.25677,-0.27917 0,-0.14268 -0.35719,-0.21782 -0.79375,-0.16699 -0.74316,0.0865 -0.79375,0.0356 -0.79375,-0.79892 0,-0.49024 -0.11906,-0.89134 -0.26458,-0.89134 -0.14552,0 -0.26459,0.4011 -0.26459,0.89134 0,0.83966 -0.0472,0.88583 -0.81489,0.79645 -0.5616,-0.0654 -0.78073,0.007 -0.70496,0.23315 0.0605,0.18041 0.46999,0.30766 0.91005,0.28278 0.7365,-0.0416 0.79295,0.0162 0.71012,0.72761 -0.0495,0.42506 0.0267,0.77284 0.16943,0.77284 0.14268,0 0.25942,-0.36241 0.25942,-0.80535 z m 17.1715,-0.0189 c 0.27947,0.32223 0.57422,0.47894 0.655,0.34824 0.0808,-0.1307 -0.0978,-0.50031 -0.39694,-0.82135 l -0.54381,-0.58372 0.59538,-0.51636 c 0.32745,-0.28401 0.51751,-0.59424 0.42234,-0.68941 -0.0952,-0.0952 -0.41191,0.1024 -0.70387,0.43904 l -0.53085,0.61207 -0.49405,-0.56965 c -0.46651,-0.53789 -1.09345,-0.76852 -1.09345,-0.40225 0,0.0921 0.25774,0.39094 0.57276,0.66415 l 0.57275,0.49675 -0.57517,0.61225 c -0.31635,0.33674 -0.49363,0.6938 -0.39395,0.79348 0.0997,0.0997 0.45674,-0.0776 0.79348,-0.39395 l 0.61224,-0.57518 z m -57.982186,-0.90102 c 0.0371,-0.13249 -0.766576,-0.25992 -1.785938,-0.28318 -1.644166,-0.0375 -2.106158,0.0799 -1.743163,0.44296 0.220932,0.22097 3.463601,0.0742 3.529101,-0.15978 z m 8.466654,0.003 c -0.0817,-0.28417 -2.0518,-0.42837 -2.0518,-0.15019 0,0.35513 0.22487,0.43317 1.17789,0.40878 0.51773,-0.0132 0.91099,-0.12962 0.87391,-0.25859 z m 8.46666,0 c -0.0817,-0.28417 -2.0518,-0.42837 -2.0518,-0.15019 0,0.35513 0.22488,0.43317 1.17789,0.40878 0.51774,-0.0132 0.911,-0.12962 0.87391,-0.25859 z m 8.53154,-0.0181 c 0,-0.17612 -0.70645,-0.28472 -1.85209,-0.28472 -1.94685,0 -2.55866,0.34672 -0.85989,0.48731 1.82379,0.15095 2.71198,0.0846 2.71198,-0.20259 z m -11.64167,-0.11216 c 0,-0.14552 -0.11906,-0.26459 -0.26458,-0.26459 -0.14553,0 -0.26459,0.11907 -0.26459,0.26459 0,0.14552 0.11906,0.26458 0.26459,0.26458 0.14552,0 0.26458,-0.11906 0.26458,-0.26458 z m 0.79375,0 c 0,-0.14552 -0.11906,-0.26459 -0.26458,-0.26459 -0.14553,0 -0.26459,0.11907 -0.26459,0.26459 0,0.14552 0.11906,0.26458 0.26459,0.26458 0.14552,0 0.26458,-0.11906 0.26458,-0.26458 z m 33.072922,0 c 0,-0.14552 -0.11907,-0.26459 -0.26459,-0.26459 -0.14552,0 -0.26458,0.11907 -0.26458,0.26459 0,0.14552 0.11906,0.26458 0.26458,0.26458 0.14552,0 0.26459,-0.11906 0.26459,-0.26458 z m 0.79375,0 c 0,-0.14552 -0.11907,-0.26459 -0.26459,-0.26459 -0.14552,0 -0.26458,0.11907 -0.26458,0.26459 0,0.14552 0.11906,0.26458 0.26458,0.26458 0.14552,0 0.26459,-0.11906 0.26459,-0.26458 z m 0.79375,0 c 0,-0.14552 -0.11907,-0.26459 -0.26459,-0.26459 -0.14552,0 -0.26458,0.11907 -0.26458,0.26459 0,0.14552 0.11906,0.26458 0.26458,0.26458 0.14552,0 0.26459,-0.11906 0.26459,-0.26458 z m 0.79375,0 c 0,-0.14552 -0.11907,-0.26459 -0.26459,-0.26459 -0.14552,0 -0.26458,0.11907 -0.26458,0.26459 0,0.14552 0.11906,0.26458 0.26458,0.26458 0.14552,0 0.26459,-0.11906 0.26459,-0.26458 z m 0.79375,0 c 0,-0.14552 -0.11907,-0.26459 -0.26459,-0.26459 -0.14552,0 -0.26458,0.11907 -0.26458,0.26459 0,0.14552 0.11906,0.26458 0.26458,0.26458 0.14552,0 0.26459,-0.11906 0.26459,-0.26458 z m -54.768761,-2.11667 c 0,-1.01865 -0.09505,-1.85208 -0.211232,-1.85208 -0.238834,0 -0.387573,3.11285 -0.165879,3.47156 0.303055,0.49035 0.377111,0.17233 0.377111,-1.61948 z m 13.372539,-0.49422 0.0491,-2.07561 -1.9483,0.0121 c -1.07157,0.007 -1.9483,0.10864 -1.9483,0.22658 0,0.11794 0.74414,0.21447 1.65364,0.21451 l 1.65365,7e-5 -0.01,1.78587 c -0.006,0.98223 0.0362,1.88309 0.0926,2.00191 0.24979,0.52576 0.41215,-0.24257 0.4576,-2.16547 z m 8.45184,0.36163 c 0.027,-1.16947 -0.0603,-1.71949 -0.27318,-1.71949 -0.21738,0 -0.28996,0.54532 -0.23768,1.78593 0.0902,2.14171 0.0753,2.04886 0.29442,1.82974 0.0972,-0.0972 0.19457,-0.95045 0.21644,-1.89618 z m 3.57563,0.13259 c 0,-1.05833 -0.1134,-1.85208 -0.26459,-1.85208 -0.15119,0 -0.26458,0.79375 -0.26458,1.85208 0,1.05833 0.11339,1.85208 0.26458,1.85208 0.15119,0 0.26459,-0.79375 0.26459,-1.85208 z m 4.86104,0.61552 c -0.0276,-0.55682 -0.061,-1.33982 -0.0743,-1.74 -0.0133,-0.40018 -0.12625,-0.7276 -0.25096,-0.7276 -0.12472,0 -0.19934,0.80367 -0.16583,1.78593 0.0697,2.04263 0.0603,1.99132 0.33463,1.82176 0.11365,-0.0702 0.18407,-0.58328 0.1565,-1.14009 z m 3.605622,-0.74781 v -1.98438 h 0.79375 c 0.43657,0 0.79375,-0.10074 0.79375,-0.22388 0,-0.12313 -0.47625,-0.22387 -1.05833,-0.22387 h -1.05833 v 2.20825 c 0,1.29578 0.10932,2.20825 0.26458,2.20825 0.15287,0 0.26458,-0.83784 0.26458,-1.98437 z m -16.933332,0 c 0,-0.97014 -0.11533,-1.71979 -0.26458,-1.71979 -0.14926,0 -0.26459,0.74965 -0.26459,1.71979 0,0.97014 0.11533,1.71979 0.26459,1.71979 0.14925,0 0.26458,-0.74965 0.26458,-1.71979 z m -11.972402,-1.05784 c 0,-0.3638 -0.148828,-0.66145 -0.330729,-0.66145 -0.181901,0 -0.330729,0.29765 -0.330729,0.66145 0,0.36381 0.148828,0.66146 0.330729,0.66146 0.181901,0 0.330729,-0.29765 0.330729,-0.66146 z m -0.727604,-1.20063 c 0,-0.16942 -0.760067,-0.25697 -1.984375,-0.22858 -1.091406,0.0253 -1.984375,0.14887 -1.984375,0.27459 0,0.12572 0.892969,0.22858 1.984375,0.22858 1.194753,0 1.984375,-0.10926 1.984375,-0.27459 z m 4.233332,0.01 c 0,-0.14552 -0.11906,-0.26458 -0.26458,-0.26458 -0.14552,0 -0.26458,0.11906 -0.26458,0.26458 0,0.14552 0.11906,0.26458 0.26458,0.26458 0.14552,0 0.26458,-0.11906 0.26458,-0.26458 z m 0.793754,0 c 0,-0.14552 -0.11906,-0.26458 -0.264584,-0.26458 -0.14552,0 -0.26458,0.11906 -0.26458,0.26458 0,0.14552 0.11906,0.26458 0.26458,0.26458 0.145524,0 0.264584,-0.11906 0.264584,-0.26458 z m 8.46667,0 c 0,-0.14552 -0.11906,-0.26458 -0.26458,-0.26458 -0.14553,0 -0.26459,0.11906 -0.26459,0.26458 0,0.14552 0.11906,0.26458 0.26459,0.26458 0.14552,0 0.26458,-0.11906 0.26458,-0.26458 z m 0.79375,0 c 0,-0.14552 -0.11906,-0.26458 -0.26458,-0.26458 -0.14553,0 -0.26459,0.11906 -0.26459,0.26458 0,0.14552 0.11906,0.26458 0.26459,0.26458 0.14552,0 0.26458,-0.11906 0.26458,-0.26458 z m 0.79375,0 c 0,-0.14552 -0.11906,-0.26458 -0.26458,-0.26458 -0.14553,0 -0.26459,0.11906 -0.26459,0.26458 0,0.14552 0.11906,0.26458 0.26459,0.26458 0.14552,0 0.26458,-0.11906 0.26458,-0.26458 z m 1.74023,0.0331 c -0.0787,-0.12733 -0.44291,-0.23151 -0.80936,-0.23151 -0.36646,0 -0.66629,0.10418 -0.66629,0.23151 0,0.12733 0.36422,0.23151 0.80937,0.23151 0.44515,0 0.74498,-0.10418 0.66628,-0.23151 z m 8.31394,0.0129 c 0,-0.12021 -0.83344,-0.21856 -1.85209,-0.21856 -1.01864,0 -1.85208,0.0983 -1.85208,0.21856 0,0.12022 0.83344,0.21857 1.85208,0.21857 1.01865,0 1.85209,-0.0983 1.85209,-0.21857 z m -25.135426,-5.07307 c 0,-0.14552 -0.535781,-0.26458 -1.190625,-0.26458 -0.654844,0 -1.190625,0.11906 -1.190625,0.26458 0,0.14552 0.535781,0.26458 1.190625,0.26458 0.654844,0 1.190625,-0.11906 1.190625,-0.26458 z m 9.194276,-0.44458 c 0,-0.33757 -0.10418,-0.61375 -0.23151,-0.61375 -0.12733,0 -0.23151,0.17859 -0.23151,0.39687 0,0.32119 -0.42262,0.39688 -2.21608,0.39688 h -2.216084 l 0.0333,-1.10223 c 0.0183,-0.60623 -0.0957,-1.14531 -0.25337,-1.19798 -0.18189,-0.0608 -0.28663,0.41915 -0.28663,1.31333 v 1.40908 l 2.700954,0.006 c 2.65031,0.006 2.70096,-0.006 2.70096,-0.60798 z m 4.29948,0.44458 c 0,-0.14552 -0.11906,-0.26458 -0.26458,-0.26458 -0.14553,0 -0.26459,0.11906 -0.26459,0.26458 0,0.14552 0.11906,0.26458 0.26459,0.26458 0.14552,0 0.26458,-0.11906 0.26458,-0.26458 z m 0.79375,0 c 0,-0.14552 -0.11906,-0.26458 -0.26458,-0.26458 -0.14553,0 -0.26459,0.11906 -0.26459,0.26458 0,0.14552 0.11906,0.26458 0.26459,0.26458 0.14552,0 0.26458,-0.11906 0.26458,-0.26458 z m 0.79375,0 c 0,-0.14552 -0.11906,-0.26458 -0.26458,-0.26458 -0.14553,0 -0.26459,0.11906 -0.26459,0.26458 0,0.14552 0.11906,0.26458 0.26459,0.26458 0.14552,0 0.26458,-0.11906 0.26458,-0.26458 z m 0.79375,0 c 0,-0.14552 -0.11906,-0.26458 -0.26458,-0.26458 -0.14553,0 -0.26459,0.11906 -0.26459,0.26458 0,0.14552 0.11906,0.26458 0.26459,0.26458 0.14552,0 0.26458,-0.11906 0.26458,-0.26458 z m 0.79375,0 c 0,-0.14552 -0.11906,-0.26458 -0.26458,-0.26458 -0.14553,0 -0.26459,0.11906 -0.26459,0.26458 0,0.14552 0.11906,0.26458 0.26459,0.26458 0.14552,0 0.26458,-0.11906 0.26458,-0.26458 z m 5.29167,0 c 0,-0.14552 -0.11907,-0.26458 -0.26459,-0.26458 -0.14552,0 -0.26458,0.11906 -0.26458,0.26458 0,0.14552 0.11906,0.26458 0.26458,0.26458 0.14552,0 0.26459,-0.11906 0.26459,-0.26458 z m 0.79375,0 c 0,-0.14552 -0.11907,-0.26458 -0.26459,-0.26458 -0.14552,0 -0.26458,0.11906 -0.26458,0.26458 0,0.14552 0.11906,0.26458 0.26458,0.26458 0.14552,0 0.26459,-0.11906 0.26459,-0.26458 z m 1.5875,-0.0283 c 0,-0.16109 -0.1786,-0.22436 -0.39688,-0.1406 -0.33095,0.127 -0.39687,-0.17597 -0.39687,-1.82377 0,-1.08684 -0.10247,-1.97607 -0.22771,-1.97607 -0.12524,0 -0.22289,0.9525 -0.21701,2.11666 0.0103,2.03457 0.0345,2.11667 0.62459,2.11667 0.33763,0 0.61388,-0.1318 0.61388,-0.29289 z m 0.79375,0.0283 c 0,-0.14552 -0.11907,-0.26458 -0.26459,-0.26458 -0.14552,0 -0.26458,0.11906 -0.26458,0.26458 0,0.14552 0.11906,0.26458 0.26458,0.26458 0.14552,0 0.26459,-0.11906 0.26459,-0.26458 z m 4.497912,-1.85208 c 0,-1.23473 -0.11024,-2.11667 -0.26458,-2.11667 -0.15434,0 -0.26458,0.88194 -0.26458,2.11667 0,1.23472 0.11024,2.11666 0.26458,2.11666 0.15434,0 0.26458,-0.88194 0.26458,-2.11666 z m 0.79375,1.85208 c 0,-0.14552 -0.11906,-0.26458 -0.26458,-0.26458 -0.14552,0 -0.26458,0.11906 -0.26458,0.26458 0,0.14552 0.11906,0.26458 0.26458,0.26458 0.14552,0 0.26458,-0.11906 0.26458,-0.26458 z m 0.79375,0 c 0,-0.14552 -0.11906,-0.26458 -0.26458,-0.26458 -0.14552,0 -0.26458,0.11906 -0.26458,0.26458 0,0.14552 0.11906,0.26458 0.26458,0.26458 0.14552,0 0.26458,-0.11906 0.26458,-0.26458 z m 0.79375,0 c 0,-0.14552 -0.11906,-0.26458 -0.26458,-0.26458 -0.14552,0 -0.26458,0.11906 -0.26458,0.26458 0,0.14552 0.11906,0.26458 0.26458,0.26458 0.14552,0 0.26458,-0.11906 0.26458,-0.26458 z m 2.38125,0.002 c 0,-0.14447 -0.47625,-0.24402 -1.05833,-0.22121 -0.58208,0.0228 -1.05833,0.14101 -1.05833,0.26268 0,0.12166 0.47625,0.22121 1.05833,0.22121 0.58208,0 1.05833,-0.11821 1.05833,-0.26268 z m 3.70417,-0.002 c 0,-0.14552 -0.11906,-0.26458 -0.26458,-0.26458 -0.14552,0 -0.26459,0.11906 -0.26459,0.26458 0,0.14552 0.11907,0.26458 0.26459,0.26458 0.14552,0 0.26458,-0.11906 0.26458,-0.26458 z m 0.79375,0 c 0,-0.14552 -0.11906,-0.26458 -0.26458,-0.26458 -0.14552,0 -0.26459,0.11906 -0.26459,0.26458 0,0.14552 0.11907,0.26458 0.26459,0.26458 0.14552,0 0.26458,-0.11906 0.26458,-0.26458 z m 0.79375,0 c 0,-0.14552 -0.11906,-0.26458 -0.26458,-0.26458 -0.14552,0 -0.26459,0.11906 -0.26459,0.26458 0,0.14552 0.11907,0.26458 0.26459,0.26458 0.14552,0 0.26458,-0.11906 0.26458,-0.26458 z m 0.79375,0 c 0,-0.14552 -0.11906,-0.26458 -0.26458,-0.26458 -0.14552,0 -0.26459,0.11906 -0.26459,0.26458 0,0.14552 0.11907,0.26458 0.26459,0.26458 0.14552,0 0.26458,-0.11906 0.26458,-0.26458 z m 0.79375,0 c 0,-0.14552 -0.11906,-0.26458 -0.26458,-0.26458 -0.14552,0 -0.26459,0.11906 -0.26459,0.26458 0,0.14552 0.11907,0.26458 0.26459,0.26458 0.14552,0 0.26458,-0.11906 0.26458,-0.26458 z m 0.79375,0 c 0,-0.14552 -0.11906,-0.26458 -0.26458,-0.26458 -0.14552,0 -0.26459,0.11906 -0.26459,0.26458 0,0.14552 0.11907,0.26458 0.26459,0.26458 0.14552,0 0.26458,-0.11906 0.26458,-0.26458 z m 9.26042,-1.85208 c 0,-1.16417 -0.1069,-2.11667 -0.23755,-2.11667 -0.13065,0 -0.231,0.9525 -0.22299,2.11667 0.008,1.16416 0.1149,2.11666 0.23754,2.11666 0.12265,0 0.223,-0.9525 0.223,-2.11666 z m 4.49791,1.85208 c 0,-0.14552 -0.11906,-0.26458 -0.26458,-0.26458 -0.14552,0 -0.26458,0.11906 -0.26458,0.26458 0,0.14552 0.11906,0.26458 0.26458,0.26458 0.14552,0 0.26458,-0.11906 0.26458,-0.26458 z m 0.79375,0 c 0,-0.14552 -0.11906,-0.26458 -0.26458,-0.26458 -0.14552,0 -0.26458,0.11906 -0.26458,0.26458 0,0.14552 0.11906,0.26458 0.26458,0.26458 0.14552,0 0.26458,-0.11906 0.26458,-0.26458 z m 0.79375,0 c 0,-0.14552 -0.11906,-0.26458 -0.26458,-0.26458 -0.14552,0 -0.26458,0.11906 -0.26458,0.26458 0,0.14552 0.11906,0.26458 0.26458,0.26458 0.14552,0 0.26458,-0.11906 0.26458,-0.26458 z m 0.79375,0 c 0,-0.14552 -0.11906,-0.26458 -0.26458,-0.26458 -0.14552,0 -0.26458,0.11906 -0.26458,0.26458 0,0.14552 0.11906,0.26458 0.26458,0.26458 0.14552,0 0.26458,-0.11906 0.26458,-0.26458 z m 0.79375,0 c 0,-0.14552 -0.11906,-0.26458 -0.26458,-0.26458 -0.14552,0 -0.26458,0.11906 -0.26458,0.26458 0,0.14552 0.11906,0.26458 0.26458,0.26458 0.14552,0 0.26458,-0.11906 0.26458,-0.26458 z m -58.326665,-2.24874 c -0.0078,-0.96052 -0.130756,-1.71967 -0.278548,-1.71979 -0.149275,-1.2e-4 -0.264583,0.74928 -0.264583,1.71957 0,1.02762 0.112109,1.71979 0.278548,1.71979 0.167868,0 0.272999,-0.68326 0.264583,-1.71957 z m 12.024583,-2.2e-4 c 0,-0.97014 -0.11533,-1.71979 -0.26458,-1.71979 -0.14926,0 -0.26459,0.74965 -0.26459,1.71979 0,0.97014 0.11533,1.71979 0.26459,1.71979 0.14925,0 0.26458,-0.74965 0.26458,-1.71979 z m 4.89479,0 c 0,-0.99562 -0.11394,-1.71979 -0.2706,-1.71979 -0.15665,0 -0.27059,0.72417 -0.27059,1.71979 0,0.99562 0.11394,1.71979 0.27059,1.71979 0.15666,0 0.2706,-0.72417 0.2706,-1.71979 z m 25.297112,0.92604 c 0.0765,-2.0644 0.0224,-2.64583 -0.24588,-2.64583 -0.11906,0 -0.21647,0.7739 -0.21647,1.71979 0,1.68292 0.40432,2.49274 0.46235,0.92604 z m 12.07529,0.13229 c 0,-0.3638 -0.10418,-0.66145 -0.23151,-0.66145 -0.12733,0 -0.23151,0.29765 -0.23151,0.66145 0,0.36381 0.10418,0.66146 0.23151,0.66146 0.12733,0 0.23151,-0.29765 0.23151,-0.66146 z m 4.82864,-1.05833 c 0,-0.97014 -0.11533,-1.71979 -0.26458,-1.71979 -0.14925,0 -0.26458,0.74965 -0.26458,1.71979 0,0.97014 0.11533,1.71979 0.26458,1.71979 0.14925,0 0.26458,-0.74965 0.26458,-1.71979 z m -53.060682,-2.24451 c 1.0122,-1.00973 1.75509,-1.92115 1.65087,-2.02537 -0.17623,-0.17623 -3.888104,3.37219 -3.888104,3.7169 0,0.40924 0.542574,-9.9e-4 2.237234,-1.69153 z m -6.735156,-0.004 c 0,-0.15287 -0.837847,-0.26458 -1.984375,-0.26458 -1.146528,0 -1.984375,0.11171 -1.984375,0.26458 0,0.15287 0.837847,0.26459 1.984375,0.26459 1.146528,0 1.984375,-0.11172 1.984375,-0.26459 z m 30.427088,0 c 0,-0.14552 -0.11906,-0.26458 -0.26458,-0.26458 -0.14552,0 -0.26458,0.11906 -0.26458,0.26458 0,0.14552 0.11906,0.26459 0.26458,0.26459 0.14552,0 0.26458,-0.11907 0.26458,-0.26459 z m 0.79375,0 c 0,-0.14552 -0.11906,-0.26458 -0.26458,-0.26458 -0.14552,0 -0.26458,0.11906 -0.26458,0.26458 0,0.14552 0.11906,0.26459 0.26458,0.26459 0.14552,0 0.26458,-0.11907 0.26458,-0.26459 z m 2.38125,-0.0407 c 0,-0.12313 -0.47625,-0.22388 -1.05833,-0.22388 -0.58208,0 -1.05833,0.10075 -1.05833,0.22388 0,0.12314 0.47625,0.22388 1.05833,0.22388 0.58208,0 1.05833,-0.10074 1.05833,-0.22388 z m 6.87917,0.0407 c 0,-0.14552 -0.11906,-0.26458 -0.26458,-0.26458 -0.14552,0 -0.26459,0.11906 -0.26459,0.26458 0,0.14552 0.11907,0.26459 0.26459,0.26459 0.14552,0 0.26458,-0.11907 0.26458,-0.26459 z m 0.79375,0 c 0,-0.14552 -0.11906,-0.26458 -0.26458,-0.26458 -0.14552,0 -0.26459,0.11906 -0.26459,0.26458 0,0.14552 0.11907,0.26459 0.26459,0.26459 0.14552,0 0.26458,-0.11907 0.26458,-0.26459 z m 0.79375,0 c 0,-0.14552 -0.11906,-0.26458 -0.26458,-0.26458 -0.14552,0 -0.26459,0.11906 -0.26459,0.26458 0,0.14552 0.11907,0.26459 0.26459,0.26459 0.14552,0 0.26458,-0.11907 0.26458,-0.26459 z m 5.29167,0 c 0,-0.14552 -0.11907,-0.26458 -0.26459,-0.26458 -0.14552,0 -0.26458,0.11906 -0.26458,0.26458 0,0.14552 0.11906,0.26459 0.26458,0.26459 0.14552,0 0.26459,-0.11907 0.26459,-0.26459 z m 0.79375,0 c 0,-0.14552 -0.11907,-0.26458 -0.26459,-0.26458 -0.14552,0 -0.26458,0.11906 -0.26458,0.26458 0,0.14552 0.11906,0.26459 0.26458,0.26459 0.14552,0 0.26459,-0.11907 0.26459,-0.26459 z m 0.79375,0 c 0,-0.14552 -0.11907,-0.26458 -0.26459,-0.26458 -0.14552,0 -0.26458,0.11906 -0.26458,0.26458 0,0.14552 0.11906,0.26459 0.26458,0.26459 0.14552,0 0.26459,-0.11907 0.26459,-0.26459 z m 0.79375,0 c 0,-0.14552 -0.11907,-0.26458 -0.26459,-0.26458 -0.14552,0 -0.26458,0.11906 -0.26458,0.26458 0,0.14552 0.11906,0.26459 0.26458,0.26459 0.14552,0 0.26459,-0.11907 0.26459,-0.26459 z m 0.79375,0 c 0,-0.14552 -0.11907,-0.26458 -0.26459,-0.26458 -0.14552,0 -0.26458,0.11906 -0.26458,0.26458 0,0.14552 0.11906,0.26459 0.26458,0.26459 0.14552,0 0.26459,-0.11907 0.26459,-0.26459 z m 5.29166,-0.0331 c 0,-0.12733 -0.21686,-0.23151 -0.48193,-0.23151 -0.42434,0 -0.47088,-0.1962 -0.38949,-1.64204 0.0508,-0.90312 0.0132,-1.82586 -0.0837,-2.05052 -0.29619,-0.68708 -0.5103,0.59581 -0.41287,2.47376 0.0819,1.57873 0.12651,1.68182 0.72761,1.68182 0.35219,0 0.64034,-0.10418 0.64034,-0.23151 z m 0.79375,0.0331 c 0,-0.14552 -0.11906,-0.26458 -0.26458,-0.26458 -0.14552,0 -0.26458,0.11906 -0.26458,0.26458 0,0.14552 0.11906,0.26459 0.26458,0.26459 0.14552,0 0.26458,-0.11907 0.26458,-0.26459 z m 0.79375,0 c 0,-0.14552 -0.11906,-0.26458 -0.26458,-0.26458 -0.14552,0 -0.26458,0.11906 -0.26458,0.26458 0,0.14552 0.11906,0.26459 0.26458,0.26459 0.14552,0 0.26458,-0.11907 0.26458,-0.26459 z m 0.79375,0 c 0,-0.14552 -0.11906,-0.26458 -0.26458,-0.26458 -0.14552,0 -0.26458,0.11906 -0.26458,0.26458 0,0.14552 0.11906,0.26459 0.26458,0.26459 0.14552,0 0.26458,-0.11907 0.26458,-0.26459 z m 0.79375,0 c 0,-0.14552 -0.11906,-0.26458 -0.26458,-0.26458 -0.14552,0 -0.26458,0.11906 -0.26458,0.26458 0,0.14552 0.11906,0.26459 0.26458,0.26459 0.14552,0 0.26458,-0.11907 0.26458,-0.26459 z m -63.235421,-2.64628 c 0,-1.27087 -0.108504,-2.11667 -0.271539,-2.11667 -0.167927,0 -0.249134,0.80766 -0.212823,2.11667 0.03229,1.16416 0.154486,2.11666 0.271538,2.11666 0.117053,0 0.212824,-0.9525 0.212824,-2.11666 z m 4.90448,-0.0661 c -0.01516,-1.20055 -0.1332,-2.15337 -0.262304,-2.11739 -0.358597,0.0999 -0.364596,4.3002 -0.0061,4.3002 0.196605,0 0.286756,-0.73305 0.268445,-2.18281 z m 12.028859,0.46302 c 0,-0.97014 -0.11533,-1.71979 -0.26458,-1.71979 -0.14926,0 -0.26459,0.74965 -0.26459,1.71979 0,0.97014 0.11533,1.71979 0.26459,1.71979 0.14925,0 0.26458,-0.74965 0.26458,-1.71979 z m 4.88023,0.0662 c -0.0194,-2.2015 -0.45706,-2.25796 -0.52327,-0.0675 -0.0339,1.12021 0.0509,1.72114 0.2429,1.72115 0.18695,1e-5 0.2896,-0.60544 0.28037,-1.65365 z m 5.96769,-0.46303 c 0,-2.08139 -0.011,-2.11667 -0.66146,-2.11667 -0.3638,0 -0.66146,0.1318 -0.66146,0.29289 0,0.16109 0.17859,0.22436 0.39687,0.1406 0.39242,-0.15059 0.49989,0.58521 0.44871,3.07224 -0.008,0.40018 0.0958,0.7276 0.23118,0.7276 0.13539,0 0.24616,-0.9525 0.24616,-2.11666 z m 10.875762,1.71979 c 0.11872,-1.69173 0.0419,-3.03187 -0.17058,-2.97656 -0.31242,0.0813 -0.39036,3.37343 -0.0799,3.37343 0.12242,0 0.23513,-0.17859 0.25044,-0.39687 z m 8.46717,-0.39688 c 0.0156,-0.43656 0.0411,-1.21047 0.0567,-1.71979 0.0156,-0.50932 -0.0865,-0.89627 -0.22678,-0.85989 -0.31308,0.0812 -0.39199,3.37343 -0.0809,3.37343 0.12243,0 0.23536,-0.35718 0.25095,-0.79375 z m 3.60719,-1.32291 c 0.008,-1.16417 -0.0923,-2.11667 -0.22299,-2.11667 -0.13065,0 -0.23755,0.9525 -0.23755,2.11667 0,1.16416 0.10035,2.11666 0.22299,2.11666 0.12265,0 0.22955,-0.9525 0.23755,-2.11666 z m 4.83113,0 c 0,-1.16417 -0.1069,-2.11667 -0.23755,-2.11667 -0.13065,0 -0.231,0.9525 -0.22299,2.11667 0.008,1.16416 0.1149,2.11666 0.23754,2.11666 0.12265,0 0.223,-0.9525 0.223,-2.11666 z m -36.248362,0.21492 c -0.75554,-0.72062 -1.43032,-1.25361 -1.49953,-1.1844 -0.21499,0.21499 2.3571,2.81361 2.62253,2.64957 0.13788,-0.0852 -0.36747,-0.74454 -1.123,-1.46517 z m -5.92472,-1.06325 -0.028,-1.37749 -2.63848,1e-4 c -2.544154,1e-4 -2.638484,0.021 -2.638484,0.58374 0,0.321 0.11575,0.57584 0.25723,0.56629 0.14148,-0.01 0.22713,-0.16687 0.19034,-0.34963 -0.0495,-0.24584 0.51848,-0.33227 2.183564,-0.33227 1.44391,0 2.23895,0.1016 2.21836,0.28348 -0.0927,0.8191 0.0592,2.00327 0.25701,2.00327 0.12452,0 0.21382,-0.61987 0.19843,-1.37749 z m 20.477242,0.18687 c 0,-0.3638 -0.11906,-0.66146 -0.26458,-0.66146 -0.14552,0 -0.26458,0.29766 -0.26458,0.66146 0,0.3638 0.11906,0.66146 0.26458,0.66146 0.14552,0 0.26458,-0.29766 0.26458,-0.66146 z m -12.810082,-1.25677 c 0.10905,-0.10914 -0.71454,-0.19844 -1.8302,-0.19844 -1.11566,0 -2.02847,0.10133 -2.02847,0.22518 0,0.27555 3.58141,0.25073 3.85867,-0.0267 z m 16.778832,0.0201 c 0,-0.12022 -0.83343,-0.21857 -1.85208,-0.21857 -1.01865,0 -1.85208,0.0984 -1.85208,0.21857 0,0.12021 0.83343,0.21857 1.85208,0.21857 1.01865,0 1.85208,-0.0984 1.85208,-0.21857 z m 4.49792,0.046 c 0,-0.14552 -0.11906,-0.26459 -0.26458,-0.26459 -0.14552,0 -0.26459,0.11907 -0.26459,0.26459 0,0.14552 0.11907,0.26458 0.26459,0.26458 0.14552,0 0.26458,-0.11906 0.26458,-0.26458 z m 0.79375,0 c 0,-0.14552 -0.11906,-0.26459 -0.26458,-0.26459 -0.14552,0 -0.26459,0.11907 -0.26459,0.26459 0,0.14552 0.11907,0.26458 0.26459,0.26458 0.14552,0 0.26458,-0.11906 0.26458,-0.26458 z m 3.175,-0.0441 c 0,-0.12127 -0.65484,-0.22049 -1.45521,-0.22049 -0.80036,0 -1.45521,0.0992 -1.45521,0.22049 0,0.12126 0.65485,0.22048 1.45521,0.22048 0.80037,0 1.45521,-0.0992 1.45521,-0.22048 z m 17.72708,-0.003 c 0,-0.11954 -1.01203,-0.21734 -2.24895,-0.21734 -1.23693,0 -2.24896,0.0978 -2.24896,0.21734 0,0.11953 1.01203,0.21733 2.24896,0.21733 1.23692,0 2.24895,-0.0978 2.24895,-0.21733 z M 70.190679,113.2297 c -0.07276,-0.1319 -0.668073,-0.2472 -1.322917,-0.25623 -1.293218,-0.0178 -1.657946,0.0683 -1.483538,0.35054 0.170292,0.27554 2.958789,0.18183 2.806455,-0.0943 z m 1.705825,-0.14703 c -0.08519,-0.13784 -0.267667,-0.18092 -0.405506,-0.0957 -0.13784,0.0852 -0.180917,0.26767 -0.09573,0.40551 0.08519,0.13784 0.267668,0.18091 0.405507,0.0957 0.137839,-0.0852 0.180917,-0.26767 0.09573,-0.40551 z m 3.58584,-1.69719 c 0,-1.23693 -0.0939,-2.24896 -0.20874,-2.24896 -0.1148,0 -0.22314,1.01203 -0.24075,2.24896 -0.0176,1.23692 0.0763,2.24895 0.20874,2.24895 0.13241,0 0.24075,-1.01203 0.24075,-2.24895 z m 4.894794,0.0914 c 0,-1.11926 -0.1122,-1.94347 -0.26458,-1.94347 -0.24293,0 -0.40875,3.42882 -0.18894,3.90692 0.26626,0.57914 0.45352,-0.23156 0.45352,-1.96345 z m 4.36563,1.76069 c 0,-0.21828 -0.11906,-0.39687 -0.26458,-0.39687 -0.14553,0 -0.26459,0.17859 -0.26459,0.39687 0,0.21829 0.11906,0.39688 0.26459,0.39688 0.14552,0 0.26458,-0.17859 0.26458,-0.39688 z m 0.79375,0 c 0,-0.21828 -0.11906,-0.39687 -0.26458,-0.39687 -0.14553,0 -0.26459,0.17859 -0.26459,0.39687 0,0.21829 0.11906,0.39688 0.26459,0.39688 0.14552,0 0.26458,-0.17859 0.26458,-0.39688 z m 2.31638,-0.009 c -0.0371,-0.13276 -0.42461,-0.24793 -0.86117,-0.25595 -0.91868,-0.0169 -1.24719,0.0916 -1.08286,0.35749 0.17179,0.27796 2.02303,0.18126 1.94403,-0.10154 z m 6.94404,-1.84316 c 0,-1.23693 -0.0939,-2.24896 -0.20874,-2.24896 -0.11481,0 -0.22315,1.01203 -0.24076,2.24896 -0.0176,1.23693 0.0763,2.24896 0.20874,2.24896 0.13242,0 0.24076,-1.01203 0.24076,-2.24896 z m 10.054162,1.83266 c 0,-0.17699 -0.70359,-0.28542 -1.85208,-0.28542 -1.24911,0 -1.85208,0.10188 -1.85208,0.31293 0,0.21368 0.58746,0.30421 1.85208,0.28543 1.13148,-0.0168 1.85208,-0.13857 1.85208,-0.31294 z m 7.64383,-0.67148 c 1.09218,-1.27 0.89501,-1.70993 -0.22771,-0.50805 l -0.80153,0.85804 -0.80154,-0.85804 c -0.81063,-0.86779 -1.43767,-0.9258 -0.75752,-0.0701 0.67938,0.85474 1.42557,1.63361 1.55906,1.62734 0.0728,-0.003 0.53591,-0.47555 1.02924,-1.0492 z m 5.23705,-1.29034 c -0.0127,-1.16589 -0.1181,-2.1198 -0.23426,-2.1198 -0.11616,0 -0.2112,1.01906 -0.2112,2.26458 0,1.2469 0.10527,2.19951 0.23426,2.11979 0.12884,-0.0796 0.22388,-1.09869 0.2112,-2.26457 z m 4.84621,0.12916 c 0,-1.23693 -0.0985,-2.24896 -0.21879,-2.24896 -0.12034,0 -0.19933,0.9525 -0.17554,2.11667 0.0463,2.26572 0.059,2.38125 0.26204,2.38125 0.0728,0 0.13229,-1.01203 0.13229,-2.24896 z m 3.6053,0.64185 c 0.0211,-0.71682 -0.0671,-1.30331 -0.19599,-1.30331 -0.12887,0 -0.23431,0.67469 -0.23431,1.49931 0,1.81478 0.37623,1.64341 0.4303,-0.196 z m 4.86136,0.1519 c 0,-0.80036 -0.10069,-1.45521 -0.22376,-1.45521 -0.12307,0 -0.24516,0.65485 -0.27131,1.45521 -0.0277,0.84873 0.0655,1.45521 0.22376,1.45521 0.15248,0 0.27131,-0.63739 0.27131,-1.45521 z m -64.029171,-1.19065 c 0,-1.01864 -0.09836,-1.85208 -0.218569,-1.85208 -0.120213,0 -0.218569,0.83344 -0.218569,1.85208 0,1.01865 0.09836,1.85208 0.218569,1.85208 0.120213,0 0.218569,-0.83343 0.218569,-1.85208 z m 16.933339,1.5875 c 0,-0.14552 -0.11906,-0.26458 -0.26458,-0.26458 -0.14553,0 -0.26459,0.11906 -0.26459,0.26458 0,0.14552 0.11906,0.26458 0.26459,0.26458 0.14552,0 0.26458,-0.11906 0.26458,-0.26458 z m 4.88323,-1.61068 c -0.007,-0.93538 -0.13651,-1.70187 -0.29631,-1.75514 -0.18738,-0.0625 -0.26166,0.51532 -0.21879,1.70177 0.0742,2.05403 0.0646,2.00016 0.32875,1.8369 0.10942,-0.0676 0.19328,-0.87022 0.18635,-1.78353 z m 12.050102,0.0232 c 0,-1.05834 -0.11339,-1.85209 -0.26458,-1.85209 -0.15119,0 -0.26458,0.79375 -0.26458,1.85209 0,1.05833 0.11339,1.85208 0.26458,1.85208 0.15119,0 0.26458,-0.79375 0.26458,-1.85208 z m 4.7625,0 c 0,-1.01865 -0.0984,-1.85209 -0.21857,-1.85209 -0.12021,0 -0.21856,0.83344 -0.21856,1.85209 0,1.01864 0.0983,1.85208 0.21856,1.85208 0.12022,0 0.21857,-0.83344 0.21857,-1.85208 z m -35.96031,0.19537 c -0.608391,-0.57888 -1.182145,-0.97653 -1.275009,-0.88367 -0.245966,0.24597 1.819631,2.28324 2.124158,2.09504 0.141359,-0.0874 -0.240758,-0.63248 -0.849149,-1.21137 z m 49.75376,0.82248 0.49405,-0.56965 0.49406,0.56965 c 0.27173,0.3133 0.56939,0.56965 0.66146,0.56965 0.37039,0 0.13027,-0.59035 -0.49406,-1.21468 l -0.66146,-0.66146 -0.66145,0.66146 c -0.62434,0.62433 -0.86445,1.21468 -0.49406,1.21468 0.0921,0 0.38973,-0.25635 0.66146,-0.56965 z M 71.941381,110.6578 c -0.04977,-1.69311 -0.550622,-1.86335 -0.583811,-0.19844 -0.02528,1.2683 0.05634,1.5875 0.40595,1.5875 0.120282,0 0.200319,-0.62507 0.177861,-1.38906 z m 37.326229,-0.46302 c 0,-0.58208 -0.10075,-1.05833 -0.22388,-1.05833 -0.12313,0 -0.22388,0.47625 -0.22388,1.05833 0,0.58208 0.10075,1.05833 0.22388,1.05833 0.12313,0 0.22388,-0.47625 0.22388,-1.05833 z m 4.84391,0 c 0,-0.58208 -0.10075,-1.05833 -0.22388,-1.05833 -0.12313,0 -0.22388,0.47625 -0.22388,1.05833 0,0.58208 0.10075,1.05833 0.22388,1.05833 0.12313,0 0.22388,-0.47625 0.22388,-1.05833 z m 13.5018,-0.31746 0.73919,-0.84663 0.79086,0.84663 c 0.43498,0.46564 0.86217,0.84663 0.9493,0.84663 0.35711,0 0.11382,-0.49737 -0.61772,-1.26285 l -0.77615,-0.81217 0.79888,-0.83595 c 0.43938,-0.45977 0.73262,-0.9022 0.65164,-0.98318 -0.081,-0.081 -0.50792,0.23889 -0.94877,0.71082 l -0.80153,0.85804 -0.76761,-0.82173 c -0.42219,-0.45195 -0.89844,-0.82173 -1.05833,-0.82173 -0.3235,0 -0.35651,-0.16724 -0.35248,-1.78594 0.002,-0.61846 -0.103,-1.12448 -0.2323,-1.12448 -0.12931,0 -0.23511,0.60711 -0.23511,1.34913 0,1.25175 0.0842,1.42864 1.16599,2.45052 l 1.16599,1.10139 -0.90047,0.75127 c -0.49525,0.4132 -0.83433,0.85828 -0.7535,0.98906 0.2326,0.37636 0.39496,0.29273 1.18212,-0.60883 z m -48.294512,-1.13334 c 0,-0.12707 -0.80367,-0.24458 -1.78594,-0.26112 -1.604274,-0.027 -2.013374,0.0733 -1.675714,0.41105 0.21689,0.21694 3.461654,0.0764 3.461654,-0.14993 z m 5.42396,-0.004 c 0,-0.21828 -0.11906,-0.39687 -0.26458,-0.39687 -0.14553,0 -0.26459,0.17859 -0.26459,0.39687 0,0.21829 0.11906,0.39688 0.26459,0.39688 0.14552,0 0.26458,-0.17859 0.26458,-0.39688 z m 3.30729,0.008 c 0,-0.12326 -0.68461,-0.24962 -1.52135,-0.28079 -1.35232,-0.0504 -1.76353,0.0749 -1.40914,0.42929 0.21284,0.21284 2.93049,0.0751 2.93049,-0.1485 z m -21.034379,-2.25677 c 0,-1.01864 -0.09427,-1.85208 -0.209483,-1.85208 -0.115215,0 -0.226071,0.83344 -0.246346,1.85208 -0.02027,1.01865 0.07399,1.85209 0.209483,1.85209 0.13549,0 0.246346,-0.83344 0.246346,-1.85209 z m 4.915387,-0.14025 c 0.03464,-1.21608 -0.04669,-1.71183 -0.280846,-1.71183 -0.237972,0 -0.308691,0.49654 -0.254362,1.78594 0.09047,2.14725 0.07432,2.04984 0.30209,1.82207 0.101394,-0.10139 0.206297,-0.95468 0.233118,-1.89618 z m 3.551278,0.008 v -1.98438 h 2.160774 c 1.18842,0 2.07152,-0.0893 1.96244,-0.19843 -0.10907,-0.10914 -1.20048,-0.20941 -2.42535,-0.22282 l -2.227024,-0.0244 v 2.20719 c 0,1.29507 0.10933,2.20719 0.26458,2.20719 0.15287,0 0.26458,-0.83785 0.26458,-1.98438 z m 4.915394,-0.008 c 0.035,-1.22762 -0.0457,-1.71183 -0.28518,-1.71183 -0.24338,0 -0.31337,0.48434 -0.25808,1.78594 0.0902,2.12377 0.0783,2.05389 0.31014,1.82207 0.1014,-0.10139 0.2063,-0.95468 0.23312,-1.89618 z m 3.55128,0.14025 c 0,-1.05833 -0.11339,-1.85208 -0.26458,-1.85208 -0.1512,0 -0.26459,0.79375 -0.26459,1.85208 0,1.05834 0.11339,1.85209 0.26459,1.85209 0.15119,0 0.26458,-0.79375 0.26458,-1.85209 z m 10.84792,-0.13229 v -1.98437 h 1.36701 c 0.75186,0 1.27776,-0.0893 1.16867,-0.19844 -0.27445,-0.27457 -5.4461,-0.29614 -5.4461,-0.0227 0,0.12163 0.53578,0.22115 1.19062,0.22115 h 1.19063 v 1.98437 c 0,1.14653 0.11171,1.98438 0.26458,1.98438 0.15287,0 0.26459,-0.83785 0.26459,-1.98438 z m 6.085412,-0.26458 c 0,-1.32292 -0.10894,-2.24896 -0.26458,-2.24896 -0.15564,0 -0.26458,0.92604 -0.26458,2.24896 0,1.32292 0.10894,2.24896 0.26458,2.24896 0.15564,0 0.26458,-0.92604 0.26458,-2.24896 z m 4.83359,-0.007 c -0.0294,-2.83815 -0.48029,-2.82258 -0.52074,0.018 -0.0217,1.52577 0.0616,2.23525 0.25507,2.17077 0.17697,-0.059 0.27901,-0.89968 0.26567,-2.18875 z m 3.63308,0.007 c 0,-1.32292 -0.10895,-2.24896 -0.26458,-2.24896 -0.15564,0 -0.26459,0.92604 -0.26459,2.24896 0,1.32292 0.10895,2.24896 0.26459,2.24896 0.15563,0 0.26458,-0.92604 0.26458,-2.24896 z m 4.81542,0 c 0,-1.15447 -0.10971,-2.1356 -0.2438,-2.18029 -0.13599,-0.0453 -0.24379,0.91874 -0.24379,2.18029 0,1.26155 0.1078,2.22562 0.24379,2.18029 0.13409,-0.0447 0.2438,-1.02583 0.2438,-2.18029 z m 3.57158,0 c -0.0176,-1.23693 -0.12596,-2.24896 -0.24076,-2.24896 -0.11481,0 -0.20874,1.01203 -0.20874,2.24896 0,1.23693 0.10834,2.24896 0.24076,2.24896 0.13241,0 0.22634,-1.01203 0.20874,-2.24896 z m 4.84217,0 c 0,-1.23693 -0.0939,-2.24896 -0.20874,-2.24896 -0.11481,0 -0.22315,1.01203 -0.24076,2.24896 -0.0176,1.23693 0.0763,2.24896 0.20874,2.24896 0.13242,0 0.24076,-1.01203 0.24076,-2.24896 z m 8.46666,-0.79375 c 0,-0.80037 -0.11906,-1.45521 -0.26458,-1.45521 -0.14552,0 -0.26458,0.65484 -0.26458,1.45521 0,0.80036 0.11906,1.45521 0.26458,1.45521 0.14552,0 0.26458,-0.65485 0.26458,-1.45521 z m -42.201042,0 c 0,-0.26679 -0.13394,-0.52972 -0.29766,-0.58429 -0.16927,-0.0564 -0.29765,0.19558 -0.29765,0.58429 0,0.38871 0.12838,0.64071 0.29765,0.58429 0.16372,-0.0546 0.29766,-0.3175 0.29766,-0.58429 z M 70.984429,104.2277 c 0.07676,-0.14508 -0.672863,-0.26125 -1.785938,-0.27677 -1.708425,-0.0238 -2.164905,0.0887 -1.808008,0.44567 0.224482,0.22452 3.46639,0.0722 3.593946,-0.1689 z m 13.758339,-0.11774 c 0,-0.14552 -0.11906,-0.26458 -0.26458,-0.26458 -0.14553,0 -0.26459,0.11906 -0.26459,0.26458 0,0.14553 0.11906,0.26459 0.26459,0.26459 0.14552,0 0.26458,-0.11906 0.26458,-0.26459 z m 3.32955,0.0661 c -0.27989,-0.28017 -3.06497,-0.30779 -3.06497,-0.0304 0,0.12586 0.73422,0.22884 1.6316,0.22884 0.89738,0 1.54239,-0.0893 1.43337,-0.19844 z m -16.95157,-5.08671 c -0.08772,-0.14194 -0.49929,-0.21851 -0.914595,-0.17015 l -0.7551,0.0879 0.063,-1.94652 c 0.04418,-1.36503 -0.03116,-1.94652 -0.252224,-1.94652 -0.217388,0 -0.306935,0.59539 -0.288504,1.91823 l 0.02672,1.91823 -0.859896,-0.0477 c -0.472943,-0.0262 -0.859896,0.0631 -0.859896,0.19844 0,0.13538 0.899996,0.24615 1.99999,0.24615 1.232285,0 1.938768,-0.0991 1.840496,-0.25807 z m 5.15535,-0.006 c 0,-0.14552 -0.11906,-0.26459 -0.264584,-0.26459 -0.14552,0 -0.26458,0.11907 -0.26458,0.26459 0,0.14552 0.11906,0.26458 0.26458,0.26458 0.145524,0 0.264584,-0.11906 0.264584,-0.26458 z m 4.11051,-1.85225 c 0.006,-1.39832 -0.0916,-2.1165 -0.2885,-2.1165 -0.19955,0 -0.27722,0.64133 -0.23513,1.94154 l 0.0628,1.94154 -1.69257,-0.0658 c -0.93091,-0.0362 -1.69256,0.0426 -1.69256,0.17512 0,0.13254 0.8632,0.2409 1.91822,0.24082 l 1.91823,-1.6e-4 z m 3.56241,1.6e-4 c 0,-1.16416 -0.10337,-2.11666 -0.2297,-2.11666 -0.12634,0 -0.25004,0.9525 -0.27489,2.11666 -0.0281,1.3166 0.0587,2.11667 0.2297,2.11667 0.16722,0 0.27489,-0.82906 0.27489,-2.11667 z m 4.88511,-0.32583 -0.01,-2.44252 -0.71793,-0.0552 c -0.39485,-0.0303 -0.71792,0.0567 -0.71792,0.19355 0,0.13681 0.21116,0.24874 0.46924,0.24874 0.4138,0 0.46722,0.2657 0.45214,2.24895 -0.0106,1.39309 0.0877,2.24897 0.25837,2.24897 0.1717,1e-5 0.27181,-0.92002 0.26578,-2.44251 z m 8.34406,2.21482 c 0,-0.12523 -1.07157,-0.21343 -2.38125,-0.196 l -2.38125,0.0317 v -1.92067 c 0,-1.10406 -0.1125,-1.92067 -0.26459,-1.92067 -0.15434,0 -0.26458,0.88195 -0.26458,2.11667 v 2.11667 h 2.64583 c 1.45521,0 2.64584,-0.10246 2.64584,-0.22769 z m 3.704162,-1.88899 c 0,-1.23472 -0.11024,-2.11666 -0.26458,-2.11666 -0.15434,0 -0.26458,0.88194 -0.26458,2.11666 0,1.23473 0.11024,2.11667 0.26458,2.11667 0.15434,0 0.26458,-0.88194 0.26458,-2.11667 z m 4.81189,1.25678 c 0.11879,-1.23208 -0.0664,-3.37344 -0.29172,-3.37344 -0.1052,0 -0.19018,0.9525 -0.18885,2.11666 0.002,2.09164 0.31999,2.92222 0.48057,1.25678 z m 3.58615,-1.25678 c -0.008,-1.16416 -0.1149,-2.11666 -0.23754,-2.11666 -0.12265,0 -0.223,0.9525 -0.223,2.11666 0,1.16417 0.1069,2.11667 0.23755,2.11667 0.13065,0 0.231,-0.9525 0.22299,-2.11667 z m 4.87174,0.8599 c 0.11537,-1.58148 -0.0131,-2.97656 -0.27418,-2.97656 -0.11002,0 -0.19895,0.9525 -0.19761,2.11666 0.003,2.30199 0.32388,2.8875 0.47179,0.8599 z m 4.45731,0.99219 c 0,-0.14552 -0.11907,-0.26459 -0.26459,-0.26459 -0.14552,0 -0.26458,0.11907 -0.26458,0.26459 0,0.14552 0.11906,0.26458 0.26458,0.26458 0.14552,0 0.26459,-0.11906 0.26459,-0.26458 z m 0.79375,0 c 0,-0.14552 -0.11907,-0.26459 -0.26459,-0.26459 -0.14552,0 -0.26458,0.11907 -0.26458,0.26459 0,0.14552 0.11906,0.26458 0.26458,0.26458 0.14552,0 0.26459,-0.11906 0.26459,-0.26458 z m 0.79375,0 c 0,-0.14552 -0.11907,-0.26459 -0.26459,-0.26459 -0.14552,0 -0.26458,0.11907 -0.26458,0.26459 0,0.14552 0.11906,0.26458 0.26458,0.26458 0.14552,0 0.26459,-0.11906 0.26459,-0.26458 z m 0.79375,0 c 0,-0.14552 -0.11907,-0.26459 -0.26459,-0.26459 -0.14552,0 -0.26458,0.11907 -0.26458,0.26459 0,0.14552 0.11906,0.26458 0.26458,0.26458 0.14552,0 0.26459,-0.11906 0.26459,-0.26458 z m 0.79375,0 c 0,-0.14552 -0.11907,-0.26459 -0.26459,-0.26459 -0.14552,0 -0.26458,0.11907 -0.26458,0.26459 0,0.14552 0.11906,0.26458 0.26458,0.26458 0.14552,0 0.26459,-0.11906 0.26459,-0.26458 z m 4.42929,-1.85209 c -0.008,-1.16416 -0.1149,-2.11666 -0.23755,-2.11666 -0.12265,0 -0.22299,0.9525 -0.22299,2.11666 0,1.16417 0.10689,2.11667 0.23754,2.11667 0.13065,0 0.231,-0.9525 0.223,-2.11667 z m -50.803326,0.33073 c -0.10548,-0.44097 -0.12035,-0.44097 -0.31229,0 -0.11085,0.25466 -0.11085,0.67138 0,0.92605 0.19194,0.44097 0.20681,0.44097 0.31229,0 0.0609,-0.25467 0.0609,-0.67139 0,-0.92605 z m 42.350536,-0.74243 c -0.0708,-2.31316 -0.47442,-2.17472 -0.47442,0.16274 0,1.17171 0.0981,1.80705 0.2633,1.70496 0.14482,-0.0895 0.23982,-0.92996 0.21112,-1.8677 z m 4.81725,0.14712 c 0,-1.01864 -0.0951,-1.85208 -0.21124,-1.85208 -0.23883,0 -0.38757,3.11285 -0.16587,3.47156 0.30305,0.49035 0.37711,0.17233 0.37711,-1.61948 z M 84.742768,94.58543 c 0,-0.14552 -0.11906,-0.26458 -0.26458,-0.26458 -0.14553,0 -0.26459,0.11906 -0.26459,0.26458 0,0.14552 0.11906,0.26458 0.26459,0.26458 0.14552,0 0.26458,-0.11906 0.26458,-0.26458 z m 0.79375,0 c 0,-0.14552 -0.11906,-0.26458 -0.26458,-0.26458 -0.14553,0 -0.26459,0.11906 -0.26459,0.26458 0,0.14552 0.11906,0.26458 0.26459,0.26458 0.14552,0 0.26458,-0.11906 0.26458,-0.26458 z m 0.79375,0 c 0,-0.14552 -0.11906,-0.26458 -0.26458,-0.26458 -0.14553,0 -0.26459,0.11906 -0.26459,0.26458 0,0.14552 0.11906,0.26458 0.26459,0.26458 0.14552,0 0.26458,-0.11906 0.26458,-0.26458 z m 0.79375,0 c 0,-0.14552 -0.11906,-0.26458 -0.26458,-0.26458 -0.14553,0 -0.26459,0.11906 -0.26459,0.26458 0,0.14552 0.11906,0.26458 0.26459,0.26458 0.14552,0 0.26458,-0.11906 0.26458,-0.26458 z m 42.333332,0.0441 c 0,-0.12127 -0.65484,-0.22049 -1.4552,-0.22049 -0.80037,0 -1.45521,0.0992 -1.45521,0.22049 0,0.12127 0.65484,0.22049 1.45521,0.22049 0.80036,0 1.4552,-0.0992 1.4552,-0.22049 z m 0.79375,-0.0441 c 0,-0.14552 -0.11906,-0.26458 -0.26458,-0.26458 -0.14552,0 -0.26458,0.11906 -0.26458,0.26458 0,0.14552 0.11906,0.26458 0.26458,0.26458 0.14552,0 0.26458,-0.11906 0.26458,-0.26458 z M 69.507822,92.22781 69.481142,90.3521 h 0.883936 c 0.486165,0 0.883936,-0.11907 0.883936,-0.26459 0,-0.15287 -0.837847,-0.26458 -1.984375,-0.26458 -1.091406,0 -1.984375,0.11077 -1.984375,0.24615 0,0.13539 0.386667,0.22468 0.859259,0.19844 l 0.85926,-0.0477 0.03371,1.91823 c 0.0395,2.24765 0.03999,2.25104 0.300934,2.08977 0.110594,-0.0684 0.189073,-0.96835 0.174398,-1.99999 z m 36.233948,-9e-4 c -0.0267,-0.52182 -0.0594,-1.27619 -0.0727,-1.67638 -0.0133,-0.40018 -0.12566,-0.7276 -0.24966,-0.7276 -0.25332,0 -0.33217,3.95529 -0.087,4.36296 0.21987,0.36556 0.46757,-0.81985 0.40934,-1.95898 z m -25.350662,0.10934 c 0.009,-1.05913 -0.0953,-1.71957 -0.2706,-1.71957 -0.17384,0 -0.28456,0.66916 -0.28456,1.71979 0,0.99576 0.11392,1.7197 0.2706,1.71957 0.15519,-1.3e-4 0.27655,-0.73358 0.28456,-1.71979 z m 3.55791,-0.39665 c 0,-1.23472 -0.11024,-2.11667 -0.26458,-2.11667 -0.15434,0 -0.26459,0.88195 -0.26459,2.11667 0,1.23472 0.11025,2.11666 0.26459,2.11666 0.15434,0 0.26458,-0.88194 0.26458,-2.11666 z m 8.46667,0 c 0,-1.23472 -0.11025,-2.11667 -0.26459,-2.11667 -0.15434,0 -0.26458,0.88195 -0.26458,2.11667 0,1.23472 0.11024,2.11666 0.26458,2.11666 0.15434,0 0.26459,-0.88194 0.26459,-2.11666 z m 8.466662,0 c 0,-1.23472 -0.11024,-2.11667 -0.26458,-2.11667 -0.15434,0 -0.26458,0.88195 -0.26458,2.11667 0,1.23472 0.11024,2.11666 0.26458,2.11666 0.15434,0 0.26458,-0.88194 0.26458,-2.11666 z m 8.46667,0 c 0,-1.23472 -0.11024,-2.11667 -0.26458,-2.11667 -0.15434,0 -0.26459,0.88195 -0.26459,2.11667 0,1.23472 0.11025,2.11666 0.26459,2.11666 0.15434,0 0.26458,-0.88194 0.26458,-2.11666 z m 4.85527,0.7276 c -0.0236,-0.76398 -0.0542,-1.71648 -0.0679,-2.11667 -0.0137,-0.40018 -0.12526,-0.7276 -0.2479,-0.7276 -0.12265,0 -0.22955,0.9525 -0.23755,2.11667 -0.01,1.43175 0.0843,2.11666 0.29085,2.11666 0.19749,0 0.29023,-0.49082 0.26246,-1.38906 z m 3.58196,-0.33073 c 0.0286,-1.03812 -0.0611,-1.71979 -0.22621,-1.71979 -0.16025,0 -0.27352,0.71218 -0.27352,1.71979 0,0.94589 0.10179,1.71979 0.22621,1.71979 0.12442,0 0.2475,-0.7739 0.27352,-1.71979 z m 4.79194,0 c 0,-1.00761 -0.11327,-1.71979 -0.27353,-1.71979 -0.1651,0 -0.25477,0.68167 -0.22621,1.71979 0.026,0.94589 0.14911,1.71979 0.27353,1.71979 0.12441,0 0.22621,-0.7739 0.22621,-1.71979 z m 3.64839,-0.19676 -0.0151,-1.91655 1.62291,0.0293 c 0.8926,0.0161 1.62291,-0.0739 1.62291,-0.20011 0,-0.1262 -0.83343,-0.22944 -1.85208,-0.22944 h -1.85208 v 2.11666 c 0,1.16417 0.1099,2.11667 0.24422,2.11667 0.13433,0 0.23745,-0.86245 0.22917,-1.91655 z m 4.81827,0.19676 c 0,-0.97014 -0.11533,-1.71979 -0.26458,-1.71979 -0.14925,0 -0.26458,0.74965 -0.26458,1.71979 0,0.97014 0.11533,1.71979 0.26458,1.71979 0.14925,0 0.26458,-0.74965 0.26458,-1.71979 z m -44.722882,0.14064 c 0.71922,-0.72302 1.19632,-1.3834 1.06021,-1.46752 -0.27439,-0.16958 -2.63941,2.07997 -2.63941,2.51054 0,0.46496 0.23072,0.31257 1.5792,-1.04302 z m 26.466632,1.04302 c 0,-0.37718 -2.38278,-2.72553 -2.57274,-2.53556 -0.16266,0.16266 2.03321,2.73392 2.37431,2.78019 0.10914,0.0148 0.19843,-0.0953 0.19843,-0.24463 z m -8.56435,-2.56017 c -0.0899,-0.09 -0.40242,0.1119 -0.69439,0.44854 l -0.53084,0.61207 -0.53085,-0.61207 c -0.29196,-0.33664 -0.59945,-0.54346 -0.68331,-0.4596 -0.0839,0.0839 0.16853,0.51274 0.56087,0.95307 l 0.71334,0.80061 0.66436,-0.78954 c 0.36539,-0.43425 0.59076,-0.86313 0.50082,-0.95308 z M 79.715688,90.05942 c 0,-0.13007 -0.53579,-0.23649 -1.19063,-0.23649 -0.65484,0 -1.19062,0.0979 -1.19062,0.21768 0,0.11972 0.53578,0.22614 1.19062,0.23649 0.65484,0.0104 1.19063,-0.0876 1.19063,-0.21768 z m 38.893752,0.0281 c 0,-0.14552 -0.11907,-0.26458 -0.26459,-0.26458 -0.14552,0 -0.26458,0.11906 -0.26458,0.26458 0,0.14552 0.11906,0.26459 0.26458,0.26459 0.14552,0 0.26459,-0.11907 0.26459,-0.26459 z m 0.79375,0 c 0,-0.14552 -0.11907,-0.26458 -0.26459,-0.26458 -0.14552,0 -0.26458,0.11906 -0.26458,0.26458 0,0.14552 0.11906,0.26459 0.26458,0.26459 0.14552,0 0.26459,-0.11907 0.26459,-0.26459 z m 0.79375,0 c 0,-0.14552 -0.11907,-0.26458 -0.26459,-0.26458 -0.14552,0 -0.26458,0.11906 -0.26458,0.26458 0,0.14552 0.11906,0.26459 0.26458,0.26459 0.14552,0 0.26459,-0.11907 0.26459,-0.26459 z m 0.79375,0 c 0,-0.14552 -0.11907,-0.26458 -0.26459,-0.26458 -0.14552,0 -0.26458,0.11906 -0.26458,0.26458 0,0.14552 0.11906,0.26459 0.26458,0.26459 0.14552,0 0.26459,-0.11907 0.26459,-0.26459 z m 0.79375,0 c 0,-0.14552 -0.11907,-0.26458 -0.26459,-0.26458 -0.14552,0 -0.26458,0.11906 -0.26458,0.26458 0,0.14552 0.11906,0.26459 0.26458,0.26459 0.14552,0 0.26459,-0.11907 0.26459,-0.26459 z m 8.46666,0 c 0,-0.14552 -0.11906,-0.26458 -0.26458,-0.26458 -0.14552,0 -0.26458,0.11906 -0.26458,0.26458 0,0.14552 0.11906,0.26459 0.26458,0.26459 0.14552,0 0.26458,-0.11907 0.26458,-0.26459 z M 67.015679,83.06043 c 0,-1.39701 -0.09841,-2.20375 -0.256872,-2.10581 -0.302103,0.18671 -0.254454,4.37039 0.04978,4.37039 0.113903,0 0.207096,-1.01906 0.207096,-2.26458 z m 4.898352,0.21406 c -0.06126,-2.76422 -0.472767,-2.86629 -0.533355,-0.1323 -0.03398,1.53343 0.04492,2.18282 0.265211,2.18282 0.218659,0 0.299829,-0.62073 0.268144,-2.05052 z m 3.568333,-2.51355 10e-6,-4.56406 1.984734,-0.0116 c 1.09161,-0.006 1.98457,-0.1203 1.98436,-0.25318 -2e-4,-0.13288 -0.98263,-0.24145 -2.18318,-0.24127 l -2.182814,3.2e-4 -0.0216,4.81692 c -0.0119,2.6493 0.0774,4.81691 0.19844,4.81691 0.12103,0 0.22007,-2.05382 0.22008,-4.56406 z m 0.793734,4.29948 c 0,-0.14552 -0.11906,-0.26458 -0.264584,-0.26458 -0.14552,0 -0.26458,0.11906 -0.26458,0.26458 0,0.14552 0.11906,0.26459 0.26458,0.26459 0.145524,0 0.264584,-0.11907 0.264584,-0.26459 z m 0.79375,0 c 0,-0.14552 -0.11906,-0.26458 -0.26458,-0.26458 -0.14552,0 -0.26458,0.11906 -0.26458,0.26458 0,0.14552 0.11906,0.26459 0.26458,0.26459 0.14552,0 0.26458,-0.11907 0.26458,-0.26459 z m 2.64584,-0.0281 c 0,-0.13007 -0.53579,-0.23649 -1.19063,-0.23649 -0.65484,0 -1.19062,0.0979 -1.19062,0.21767 0,0.11972 0.53578,0.22615 1.19062,0.2365 0.65484,0.0103 1.19063,-0.0876 1.19063,-0.21768 z m 5.02708,0.0281 c 0,-0.14552 -0.11906,-0.26458 -0.26458,-0.26458 -0.14553,0 -0.26459,0.11906 -0.26459,0.26458 0,0.14552 0.11906,0.26459 0.26459,0.26459 0.14552,0 0.26458,-0.11907 0.26458,-0.26459 z m 0.79375,0 c 0,-0.14552 -0.11906,-0.26458 -0.26458,-0.26458 -0.14553,0 -0.26459,0.11906 -0.26459,0.26458 0,0.14552 0.11906,0.26459 0.26459,0.26459 0.14552,0 0.26458,-0.11907 0.26458,-0.26459 z m 0.79375,0 c 0,-0.14552 -0.11906,-0.26458 -0.26458,-0.26458 -0.14553,0 -0.26459,0.11906 -0.26459,0.26458 0,0.14552 0.11906,0.26459 0.26459,0.26459 0.14552,0 0.26458,-0.11907 0.26458,-0.26459 z m 0.79375,0 c 0,-0.14552 -0.11906,-0.26458 -0.26458,-0.26458 -0.14553,0 -0.26459,0.11906 -0.26459,0.26458 0,0.14552 0.11906,0.26459 0.26459,0.26459 0.14552,0 0.26458,-0.11907 0.26458,-0.26459 z m 0.79375,0 c 0,-0.14552 -0.11906,-0.26458 -0.26458,-0.26458 -0.14553,0 -0.26459,0.11906 -0.26459,0.26458 0,0.14552 0.11906,0.26459 0.26459,0.26459 0.14552,0 0.26458,-0.11907 0.26458,-0.26459 z m 4.49792,-1.83647 c 0,-1.15557 -0.11907,-2.17463 -0.26459,-2.26457 -0.16851,-0.10415 -0.26458,0.65871 -0.26458,2.10105 0,1.33333 0.1088,2.26458 0.26458,2.26458 0.15418,0 0.26459,-0.87674 0.26459,-2.10106 z m 2.38125,1.79577 c 0,-0.12313 -0.47625,-0.22388 -1.05834,-0.22388 -0.58208,0 -1.05833,0.10075 -1.05833,0.22388 0,0.12313 0.47625,0.22388 1.05833,0.22388 0.58209,0 1.05834,-0.10075 1.05834,-0.22388 z m 1.5875,0.0407 c 0,-0.14552 -0.11907,-0.26458 -0.26459,-0.26458 -0.14552,0 -0.26458,0.11906 -0.26458,0.26458 0,0.14552 0.11906,0.26458 0.26458,0.26458 0.14552,0 0.26459,-0.11906 0.26459,-0.26458 z m 5.291662,0 c 0,-0.14552 -0.11906,-0.26458 -0.26458,-0.26458 -0.14552,0 -0.26458,0.11906 -0.26458,0.26458 0,0.14552 0.11906,0.26458 0.26458,0.26458 0.14552,0 0.26458,-0.11906 0.26458,-0.26458 z m 0.79375,0 c 0,-0.14552 -0.11906,-0.26458 -0.26458,-0.26458 -0.14552,0 -0.26458,0.11906 -0.26458,0.26458 0,0.14552 0.11906,0.26458 0.26458,0.26458 0.14552,0 0.26458,-0.11906 0.26458,-0.26458 z m 3.175,-0.0441 c 0,-0.12127 -0.65484,-0.22049 -1.45521,-0.22049 -0.80036,0 -1.4552,0.0992 -1.4552,0.22049 0,0.12127 0.65484,0.22048 1.4552,0.22048 0.80037,0 1.45521,-0.0992 1.45521,-0.22048 z m 3.63923,-1.80799 c 0.029,-1.22813 -0.0579,-2.11666 -0.2071,-2.11666 -0.14502,0 -0.25713,0.92285 -0.25713,2.11666 0,1.16417 0.0932,2.11667 0.2071,2.11667 0.1139,0 0.22961,-0.9525 0.25713,-2.11667 z m 9.32536,1.85209 c 0,-0.14553 -0.11907,-0.26459 -0.26459,-0.26459 -0.14552,0 -0.26458,0.11906 -0.26458,0.26459 0,0.14552 0.11906,0.26458 0.26458,0.26458 0.14552,0 0.26459,-0.11906 0.26459,-0.26458 z m 0.79375,0 c 0,-0.14553 -0.11907,-0.26459 -0.26459,-0.26459 -0.14552,0 -0.26458,0.11906 -0.26458,0.26459 0,0.14552 0.11906,0.26458 0.26458,0.26458 0.14552,0 0.26459,-0.11906 0.26459,-0.26458 z m 0.79375,0 c 0,-0.14553 -0.11907,-0.26459 -0.26459,-0.26459 -0.14552,0 -0.26458,0.11906 -0.26458,0.26459 0,0.14552 0.11906,0.26458 0.26458,0.26458 0.14552,0 0.26459,-0.11906 0.26459,-0.26458 z m 0.79375,0 c 0,-0.14553 -0.11907,-0.26459 -0.26459,-0.26459 -0.14552,0 -0.26458,0.11906 -0.26458,0.26459 0,0.14552 0.11906,0.26458 0.26458,0.26458 0.14552,0 0.26459,-0.11906 0.26459,-0.26458 z m 0.79375,0 c 0,-0.14553 -0.11907,-0.26459 -0.26459,-0.26459 -0.14552,0 -0.26458,0.11906 -0.26458,0.26459 0,0.14552 0.11906,0.26458 0.26458,0.26458 0.14552,0 0.26459,-0.11906 0.26459,-0.26458 z m 4.43271,-1.84124 c 0.0274,-1.1582 -0.0658,-2.17726 -0.20709,-2.26457 -0.15847,-0.0979 -0.25687,0.7088 -0.25687,2.10582 0,2.85658 0.39698,2.99241 0.46396,0.15875 z m 4.8277,-0.0109 c 0,-1.27087 -0.1085,-2.11667 -0.27153,-2.11667 -0.16793,0 -0.24914,0.80766 -0.21283,2.11667 0.0323,1.16417 0.15449,2.11667 0.27154,2.11667 0.11705,0 0.21282,-0.9525 0.21282,-2.11667 z m -50.671492,-0.3979 c -0.0517,-2.23667 -0.46989,-2.23667 -0.5216,0 -0.0262,1.1316 0.0631,1.72082 0.2608,1.72082 0.19767,0 0.28697,-0.58922 0.2608,-1.72082 z m 3.57566,0.001 c 0,-1.00761 -0.11327,-1.71979 -0.27352,-1.71979 -0.16511,0 -0.25477,0.68167 -0.22621,1.71979 0.026,0.94588 0.1491,1.71979 0.27352,1.71979 0.12441,0 0.22621,-0.77391 0.22621,-1.71979 z m 4.8959,1.13959 c -0.0606,-0.82188 -0.59642,-0.90479 -0.59642,-0.0923 0,0.36986 0.14381,0.67248 0.31958,0.67248 0.17578,0 0.30035,-0.26109 0.27684,-0.5802 z m 8.36161,-0.21355 c 0.0156,-0.43656 0.0411,-1.21047 0.0567,-1.71979 0.0156,-0.50932 -0.0865,-0.92651 -0.22679,-0.92709 -0.14032,-5.7e-4 -0.26787,0.77333 -0.28345,1.71979 -0.0156,0.94646 0.0737,1.72084 0.19844,1.72084 0.12471,0 0.23951,-0.35719 0.2551,-0.79375 z m 3.675822,-0.92604 c 0,-0.97014 -0.11533,-1.71979 -0.26458,-1.71979 -0.14925,0 -0.26458,0.74965 -0.26458,1.71979 0,0.97014 0.11533,1.71979 0.26458,1.71979 0.14925,0 0.26458,-0.74965 0.26458,-1.71979 z m 16.85522,-1e-4 c 0.015,-0.94595 -0.0804,-1.78641 -0.2119,-1.8677 -0.13385,-0.0827 -0.23915,0.67454 -0.23915,1.71989 0,1.02724 0.0953,1.8677 0.2119,1.8677 0.11654,0 0.22416,-0.77395 0.23915,-1.71989 z m 4.84062,-0.14781 c 0,-1.04535 -0.1053,-1.80262 -0.23915,-1.71989 -0.29388,0.18162 -0.268,3.58759 0.0273,3.58759 0.11654,0 0.2119,-0.84046 0.2119,-1.8677 z M 71.128045,80.54413 c 0.08879,-0.14366 -0.681047,-0.24626 -1.847793,-0.24626 -1.099994,0 -1.99999,0.0943 -1.99999,0.20949 0,0.29856 3.664341,0.33359 3.847783,0.0368 z m 8.587643,-0.0195 c 0,-0.12474 -0.89297,-0.2268 -1.98438,-0.2268 -1.09141,0 -1.984374,0.0965 -1.984374,0.21444 0,0.11794 0.892964,0.22001 1.984374,0.22681 1.09141,0.007 1.98438,-0.0897 1.98438,-0.21445 z m 23.547912,-0.003 c 0,-0.12313 -0.47625,-0.22387 -1.05833,-0.22387 -0.58208,0 -1.05833,0.10074 -1.05833,0.22387 0,0.12314 0.47625,0.22388 1.05833,0.22388 0.58208,0 1.05833,-0.10074 1.05833,-0.22388 z m 6.87917,0.0407 c 0,-0.14552 -0.11906,-0.26458 -0.26458,-0.26458 -0.14552,0 -0.26459,0.11906 -0.26459,0.26458 0,0.14552 0.11907,0.26459 0.26459,0.26459 0.14552,0 0.26458,-0.11907 0.26458,-0.26459 z m 0.79375,0 c 0,-0.14552 -0.11906,-0.26458 -0.26458,-0.26458 -0.14552,0 -0.26459,0.11906 -0.26459,0.26458 0,0.14552 0.11907,0.26459 0.26459,0.26459 0.14552,0 0.26458,-0.11907 0.26458,-0.26459 z m 0.79375,0 c 0,-0.14552 -0.11906,-0.26458 -0.26458,-0.26458 -0.14552,0 -0.26459,0.11906 -0.26459,0.26458 0,0.14552 0.11907,0.26459 0.26459,0.26459 0.14552,0 0.26458,-0.11907 0.26458,-0.26459 z m 8.46667,0 c 0,-0.14552 -0.11907,-0.26458 -0.26459,-0.26458 -0.14552,0 -0.26458,0.11906 -0.26458,0.26458 0,0.14552 0.11906,0.26459 0.26458,0.26459 0.14552,0 0.26459,-0.11907 0.26459,-0.26459 z m 0.79375,0 c 0,-0.14552 -0.11907,-0.26458 -0.26459,-0.26458 -0.14552,0 -0.26458,0.11906 -0.26458,0.26458 0,0.14552 0.11906,0.26459 0.26458,0.26459 0.14552,0 0.26459,-0.11907 0.26459,-0.26459 z m 0.79375,0 c 0,-0.14552 -0.11907,-0.26458 -0.26459,-0.26458 -0.14552,0 -0.26458,0.11906 -0.26458,0.26458 0,0.14552 0.11906,0.26459 0.26458,0.26459 0.14552,0 0.26459,-0.11907 0.26459,-0.26459 z m 8.46666,-0.046 c 0,-0.12021 -0.83343,-0.21857 -1.85208,-0.21857 -1.01865,0 -1.85208,0.0984 -1.85208,0.21857 0,0.12022 0.83343,0.21857 1.85208,0.21857 1.01865,0 1.85208,-0.0983 1.85208,-0.21857 z M 67.056289,78.77638 c 0.114348,-1.56748 -0.0029,-2.4474 -0.326056,-2.4474 -0.136753,0 -0.223619,0.83344 -0.193036,1.85209 0.06335,2.11017 0.38193,2.47552 0.519092,0.59531 z m 4.874508,-0.4645 c -0.06365,-2.23426 -0.490618,-2.23416 -0.55816,1.3e-4 -0.03704,1.22526 0.04294,1.72114 0.277583,1.72114 0.234341,0 0.315439,-0.49751 0.280577,-1.72127 z m 8.466671,0 c -0.0637,-2.23528 -0.50614,-2.23528 -0.56982,0 -0.0352,1.23537 0.0452,1.72127 0.28491,1.72127 0.23967,0 0.3201,-0.4859 0.28491,-1.72127 z m 3.55155,-0.13081 c 0,-1.05834 -0.11339,-1.85209 -0.26458,-1.85209 -0.1512,0 -0.26459,0.79375 -0.26459,1.85209 0,1.05833 0.11339,1.85208 0.26459,1.85208 0.15119,0 0.26458,-0.79375 0.26458,-1.85208 z m 8.46667,-0.0717 v -1.92374 l 1.98437,0.038 c 1.31384,0.0251 1.98429,-0.0624 1.98411,-0.25908 -1.7e-4,-0.19441 -0.77728,-0.30565 -2.24896,-0.32194 l -2.24869,-0.0249 v 2.2077 c 0,1.29541 0.10933,2.20769 0.26458,2.20769 0.15213,0 0.26459,-0.81763 0.26459,-1.92374 z m 4.79084,1.12999 c 0.0156,-0.43657 0.0411,-1.21047 0.0567,-1.7198 0.0156,-0.50932 -0.0865,-0.92425 -0.22679,-0.92207 -0.14032,0.002 -0.26909,0.77609 -0.28614,1.71979 -0.0171,0.9437 0.0722,1.71583 0.19843,1.71583 0.1262,0 0.24221,-0.35719 0.2578,-0.79375 z m 3.675822,-1.05834 c 0,-1.05833 -0.11339,-1.85208 -0.26458,-1.85208 -0.15119,0 -0.26458,0.79375 -0.26458,1.85208 0,1.05834 0.11339,1.85209 0.26458,1.85209 0.15119,0 0.26458,-0.79375 0.26458,-1.85209 z m 8.46667,0 c 0,-1.05833 -0.11339,-1.85208 -0.26458,-1.85208 -0.15119,0 -0.26459,0.79375 -0.26459,1.85208 0,1.05834 0.1134,1.85209 0.26459,1.85209 0.15119,0 0.26458,-0.79375 0.26458,-1.85209 z m 8.41598,0 c 0.0332,-1.10643 -0.0519,-1.85208 -0.21144,-1.85208 -0.15423,0 -0.26704,0.78237 -0.26704,1.85208 0,1.01865 0.0951,1.85209 0.21144,1.85209 0.11629,0 0.23646,-0.83344 0.26704,-1.85209 z m 8.40956,-0.26326 c -0.0135,-1.16367 -0.13928,-2.11595 -0.27963,-2.11667 -0.14033,-7.2e-4 -0.24238,0.4154 -0.22679,0.92472 0.0156,0.50933 0.0411,1.46183 0.0567,2.11667 0.0156,0.65484 0.12867,1.19063 0.25128,1.19063 0.12262,0 0.21192,-0.95191 0.19844,-2.11535 z m 4.87029,-0.13361 c 0,-1.32292 -0.10894,-2.24896 -0.26458,-2.24896 -0.15564,0 -0.26458,0.92604 -0.26458,2.24896 0,1.32291 0.10894,2.24896 0.26458,2.24896 0.15564,0 0.26458,-0.92605 0.26458,-2.24896 z m -42.200212,-0.7164 c -0.0246,-0.33359 -0.14253,-0.60652 -0.26212,-0.60652 -0.2551,0 -0.42938,0.9293 -0.23367,1.24597 0.23637,0.38246 0.54203,-0.0118 0.49579,-0.63945 z m 25.405272,0.0383 c 0.0494,-0.67 -0.35244,-0.95214 -0.56544,-0.39706 -0.18558,0.48362 0.0933,1.36481 0.35047,1.10759 0.0966,-0.0966 0.19329,-0.4163 0.21497,-0.71053 z m 8.40328,-0.57872 c -0.0584,-0.10914 -0.21827,-0.19844 -0.3552,-0.19844 -0.29477,0 -0.33625,1.14744 -0.0518,1.43193 0.21304,0.21304 0.58225,-0.90604 0.40696,-1.23349 z m -51.667635,-0.6068 c -0.0016,-0.33431 -3.517352,-0.28775 -3.629289,0.0481 -0.06034,0.18104 0.561143,0.26222 1.76869,0.23105 1.023949,-0.0264 1.861219,-0.15203 1.860599,-0.27911 z m 16.933513,0.0134 c -0.002,-0.35004 -3.51494,-0.3089 -3.63209,0.0425 -0.0636,0.1907 0.52982,0.2727 1.76887,0.24443 1.02549,-0.0234 1.86394,-0.15253 1.86322,-0.28697 z m 17.792472,0.0173 c -0.0977,-0.36562 -4.5646,-0.36735 -4.5646,-0.002 0,0.19745 0.77022,0.28779 2.3151,0.27153 1.28096,-0.0135 2.2858,-0.13399 2.2495,-0.26976 z m 7.60593,9.3e-4 c -1.8e-4,-0.17402 -0.72025,-0.29311 -1.85208,-0.30632 -1.23878,-0.0144 -1.85179,0.0798 -1.85179,0.28472 0,0.20286 0.62552,0.30632 1.85209,0.30632 1.14582,0 1.85197,-0.10857 1.85178,-0.28472 z m 8.46695,0 c -1e-5,-0.17527 -0.71196,-0.28811 -1.85209,-0.29356 -1.18553,-0.006 -1.85206,0.0968 -1.85206,0.28471 0,0.18707 0.67185,0.29357 1.85208,0.29357 1.14565,0 1.85208,-0.1086 1.85207,-0.28472 z"
       id="path1" /></g></svg>
